# xmcd CD database file
#
# Track frame offsets:
#	150
#	12361
#	24556
#	43221
#	61872
#	76632
#	91389
#	102755
#	114101
#	130955
#	147831
#	159617
#	171403
#	184960
#	198509
#	211340
#	224161
#	234248
#	244346
#	256715
#	269081
#	274585
#	280583
#	285405
#	290492
#	295756
#	299628
#	304284
#	310006
#	313596
#	319183
#	332007
#
# Disc length: 4443 seconds
#
# Revision: 0
# Processed by: cddbd v1.5.2PL0 Copyright (c) Steve Scherf et al.
# Submitted via: CDex 1.50
#
DISCID=e7115920
DTITLE=Essential Elements - Jazz Playalong Jazz Standards
DYEAR=1900
DGENRE=Jazz
TTITLE0=Now's The Time
TTITLE1=Now's The Time -1
TTITLE2=Killer Joe
TTITLE3=Killer Joe -1
TTITLE4=Blue Bossa
TTITLE5=Blue Bossa -1
TTITLE6=C-Jam Blues
TTITLE7=C-Jam Blues -1
TTITLE8=Footprints
TTITLE9=Footprints -1
TTITLE10=Song For My Father
TTITLE11=Song For My Father -1
TTITLE12=Autumn Leaves
TTITLE13=Autumn Leaves -1
TTITLE14=Freddie Freeloader
TTITLE15=Freddie Freeloader -1
TTITLE16=St. Thomas
TTITLE17=St. Thomas -1
TTITLE18=Blue Train
TTITLE19=Blue Train -1
TTITLE20=Now's The Time - Solo (Trombone)
TTITLE21=Killer Joe - Solo (Alto)
TTITLE22=Blue Bossa - Solo (Tenor)
TTITLE23=C-Jam Blues - Solo (Alto)
TTITLE24=Footprints Solo - (Trumpet)
TTITLE25=Song For My Father - Solo (Alto)
TTITLE26=Autumn Leaves - Solo (Tenor)
TTITLE27=Freddie Freeloader - Solo (Trombone)
TTITLE28=St. Thomas - Solo (Tenor)
TTITLE29=Blue Train - Solo (Trumpet)
TTITLE30=Bb Tuning Notes
TTITLE31=Tuning Notes
EXTD=
EXTT0=
EXTT1=
EXTT2=
EXTT3=
EXTT4=
EXTT5=
EXTT6=
EXTT7=
EXTT8=
EXTT9=
EXTT10=
EXTT11=
EXTT12=
EXTT13=
EXTT14=
EXTT15=
EXTT16=
EXTT17=
EXTT18=
EXTT19=
EXTT20=
EXTT21=
EXTT22=
EXTT23=
EXTT24=
EXTT25=
EXTT26=
EXTT27=
EXTT28=
EXTT29=
EXTT30=
EXTT31=
PLAYORDER=
